<?xml version="1.0" encoding="UTF-8" standalone="no"?>
<!-- Created with Inkscape (http://www.inkscape.org/) -->

<svg
   xmlns:dc="http://purl.org/dc/elements/1.1/"
   xmlns:cc="http://creativecommons.org/ns#"
   xmlns:rdf="http://www.w3.org/1999/02/22-rdf-syntax-ns#"
   xmlns:svg="http://www.w3.org/2000/svg"
   xmlns="http://www.w3.org/2000/svg"
   xmlns:sodipodi="http://sodipodi.sourceforge.net/DTD/sodipodi-0.dtd"
   xmlns:inkscape="http://www.inkscape.org/namespaces/inkscape"
   width="300.51181"
   height="314.85785"
   id="svg2"
   version="1.1"
   inkscape:version="0.48.0 r9654"
   sodipodi:docname="Salesians of Don Bosco logo.svg">
  <defs
     id="defs4" />
  <sodipodi:namedview
     id="base"
     pagecolor="#ffffff"
     bordercolor="#666666"
     borderopacity="1.0"
     inkscape:pageopacity="0.0"
     inkscape:pageshadow="2"
     inkscape:zoom="1.979899"
     inkscape:cx="57.739441"
     inkscape:cy="218.56782"
     inkscape:document-units="px"
     inkscape:current-layer="layer1"
     showgrid="false"
     inkscape:window-width="1280"
     inkscape:window-height="748"
     inkscape:window-x="-8"
     inkscape:window-y="-8"
     inkscape:window-maximized="1"
     fit-margin-top="0"
     fit-margin-left="0"
     fit-margin-right="0"
     fit-margin-bottom="0" />
  <metadata
     id="metadata7">
    <rdf:RDF>
      <cc:Work
         rdf:about="">
        <dc:format>image/svg+xml</dc:format>
        <dc:type
           rdf:resource="http://purl.org/dc/dcmitype/StillImage" />
        <dc:title />
      </cc:Work>
    </rdf:RDF>
  </metadata>
  <g
     inkscape:label="Layer 1"
     inkscape:groupmode="layer"
     id="layer1"
     transform="translate(-238.46866,-460.95869)">
    <g
       id="g3024">
      <path
         style="fill:#fdbba6"
         d="m 432.0738,766.10864 c 0.30098,-0.48699 1.62826,-1.39263 2.94953,-2.01254 4.40707,-2.0677 15.32294,-10.15054 25.04597,-18.54569 10.38947,-8.97059 25.66422,-24.92801 27.97736,-29.22776 1.05124,-1.95408 2.63043,-4.69289 3.50933,-6.08627 2.90216,-4.60097 4.25851,-13.61871 2.83646,-18.85836 -3.14718,-11.596 -10.0697,-19.4833 -22.23431,-25.33306 -4.1528,-1.99701 -8.82275,-4.24865 -10.37767,-5.00363 -2.07457,-1.00731 -2.97903,-1.1388 -3.39775,-0.49399 -0.31384,0.4833 -0.7405,8.69353 -0.94814,18.24498 l -0.37753,17.36626 -13.11415,0.20697 c -9.03158,0.14255 -13.43888,-0.0625 -14.15727,-0.65874 -0.83979,-0.69696 -1.04314,-4.79367 -1.04314,-21.01544 0,-15.96331 -0.21699,-20.44647 -1.04443,-21.57807 -0.75161,-1.02787 -2.49813,-1.5975 -6.2292,-2.03163 -2.85163,-0.3318 -7.22342,-0.95803 -9.7151,-1.3916 -2.49168,-0.43358 -5.54965,-0.85844 -6.79549,-0.94414 l -2.26516,-0.1558 -0.20003,22.96536 c -0.13622,15.64048 -0.47124,23.29218 -1.05037,23.98998 -0.66955,0.80676 -3.67718,0.98086 -14.14602,0.81886 l -13.29567,-0.20575 -0.37752,-26.95635 c -0.23168,-16.54251 -0.66922,-27.20976 -1.13259,-27.6123 -0.41528,-0.36077 -3.30336,-1.46173 -6.41796,-2.44657 -7.16045,-2.26415 -12.69676,-5.83256 -15.10832,-9.73804 -1.03423,-1.6749 -2.22019,-2.94163 -2.63547,-2.81496 -0.4808,0.14665 -0.75505,8.21156 -0.75505,22.20333 l 0,21.97302 1.93526,2.12516 c 1.0644,1.16885 2.5058,2.97461 3.20313,4.01281 0.69732,1.0382 2.45438,3.61367 3.9046,5.72327 3.34632,4.86787 4.81362,9.04235 5.40146,15.36726 0.40945,4.40553 0.23478,5.47409 -1.43278,8.76484 -3.29147,6.49541 -12.95122,14.58935 -28.4903,23.87212 -13.38642,7.99682 -25.53509,13.47239 -29.89125,13.47239 -0.89596,0 -3.96571,-1.90242 -6.82166,-4.22759 -5.20025,-4.2338 -20.67125,-19.81536 -20.67125,-20.81897 0,-0.29341 -1.3591,-2.10378 -3.02022,-4.02305 -1.66112,-1.91928 -3.02022,-3.75984 -3.02022,-4.09015 0,-0.33031 -1.16821,-2.13051 -2.59602,-4.00046 -4.11893,-5.3944 -13.00362,-23.8728 -16.34253,-33.98922 -5.56512,-16.86155 -7.9139,-33.13514 -7.22333,-50.04703 0.25412,-6.2236 0.77224,-13.18441 1.15137,-15.46845 0.37914,-2.28404 1.06202,-6.36134 1.51754,-9.06066 0.90105,-5.33953 3.22548,-13.4288 5.46428,-19.01634 0.77962,-1.94574 1.41749,-3.88031 1.41749,-4.29903 0,-0.8052 8.20062,-17.76131 10.4516,-21.61039 3.53681,-6.04777 7.04425,-10.92309 9.10717,-12.65893 3.52836,-2.96892 11.25786,-4.08877 20.32083,-2.9441 7.69628,0.97207 8.38771,0.76597 8.44892,-2.51828 0.079,-4.24131 5.48869,-12.06695 9.9613,-14.41012 11.26899,-5.90373 23.49209,-1.87539 29.39033,9.68613 2.49066,4.88211 2.21988,11.44087 -0.71879,17.41016 -5.61998,11.41581 -2.33155,9.06501 23.81935,-17.02774 14.52277,-14.49048 24.20532,-23.59546 25.09222,-23.59546 0.86619,0 7.88639,6.35541 17.54052,15.87948 24.00152,23.67813 33.6215,32.82156 34.53223,32.82156 1.48323,0 0.85367,-2.30895 -1.40174,-5.1409 -2.82241,-3.54392 -4.13408,-8.81706 -3.61557,-14.5353 0.71599,-7.89603 6.01265,-14.49497 13.67801,-17.04099 4.75451,-1.5792 8.28039,-1.56984 13.11154,0.0348 8.16523,2.71206 13.58656,10.23088 14.36447,19.92203 0.2943,3.66631 0.62444,4.66622 1.43762,4.35417 0.58057,-0.22279 3.50564,-0.94146 6.50015,-1.59706 2.99451,-0.65559 6.48801,-1.51059 7.76334,-1.89997 1.27532,-0.3894 4.71769,-0.708 7.64969,-0.708 5.27104,0 5.35526,0.0318 7.49694,2.82996 5.84785,7.64037 14.36653,23.14088 17.11788,31.14751 0.64217,1.86876 1.74807,4.75684 2.45756,6.41796 1.45182,3.39915 3.70724,11.7314 5.31394,19.63143 3.77554,18.56405 2.91853,46.60442 -1.96155,64.17965 -0.46124,1.66112 -1.15508,4.2689 -1.54188,5.79506 -1.41842,5.59667 -7.56118,20.44291 -10.51708,25.41844 -1.67197,2.81433 -3.03994,5.36023 -3.03994,5.65754 0,0.69693 -4.09071,6.83348 -9.61145,14.41833 -4.64306,6.37902 -18.56909,20.91174 -24.61737,25.68983 -12.27572,9.69773 -28.06506,18.8429 -40.14408,23.25142 -8.43842,3.0798 -9.0174,3.23103 -8.37204,2.1868 z M 317.57632,630.21768 c 0.11241,-8.37512 -0.0524,-15.22749 -0.36619,-15.22749 -1.2056,0 -18.33706,17.78876 -18.33706,19.04061 0,0.81343 1.37711,2.02749 3.58651,3.1619 1.97258,1.01281 5.79505,3.36946 8.49437,5.23699 2.69932,1.86755 5.24763,3.31002 5.66291,3.20551 0.46354,-0.11667 0.83397,-6.06919 0.95946,-15.41752 z m 32.64048,-13.50927 c 0,-3.94393 11.60846,-18.09146 18.34612,-22.3589 4.60288,-2.91532 5.05465,-4.73042 5.05775,-20.32104 0.002,-7.78651 -0.24837,-14.15728 -0.55537,-14.15728 -0.30701,0 -6.25306,5.68748 -13.21346,12.63884 l -12.65526,12.63884 0,16.36901 c 0,9.00297 0.22453,16.95414 0.49896,17.66929 0.46574,1.21371 0.56627,1.20821 1.51011,-0.0826 0.55613,-0.76056 1.01115,-1.83885 1.01115,-2.3962 z m -59.27015,-15.93677 c -0.50125,-0.50124 -3.3994,2.17692 -3.3994,3.14137 0,0.4233 0.8481,-0.0271 1.88466,-1.0009 1.03656,-0.9738 1.7182,-1.93701 1.51474,-2.14047 z m 118.91948,-32.76218 c 0,-1.40719 -5.70002,-8.13827 -6.89166,-8.13827 -0.73281,0 -0.92416,11.56392 -0.20328,12.28481 0.89283,0.89283 7.09494,-2.7319 7.09494,-4.14654 z m -30.58522,-65.78769 c -11.98109,-5.57931 -15.63511,-20.7417 -7.55271,-31.34005 9.12014,-11.9591 26.87357,-10.60843 34.10687,2.59484 3.28243,5.99156 3.85417,10.25289 2.11676,15.77658 -1.62043,5.15179 -6.51015,10.91556 -11.17669,13.1746 -4.63754,2.24499 -12.42796,2.15327 -17.49423,-0.20597 z"
         id="path3008"
         inkscape:connector-curvature="0" />
      <path
         style="fill:#f40725;fill-opacity:1"
         d="m 318.90448,696.26789 c -1.34327,-0.98222 -1.3777,-2.63165 -0.86661,-41.52801 0.4323,-32.89931 0.34886,-40.50567 -0.44435,-40.50785 -0.86156,-0.002 -13.59369,12.78475 -22.17609,22.27187 -1.69301,1.87148 -3.56177,3.39339 -4.1528,3.38203 -1.56122,-0.03 -18.82104,-16.73771 -18.81961,-18.21761 6.7e-4,-0.68723 3.14413,-4.35445 6.98547,-8.14936 3.84134,-3.79492 19.55592,-19.37702 34.92128,-34.62689 33.74917,-33.49551 72.63682,-71.41147 73.56547,-71.72728 0.37146,-0.12632 11.66282,10.61004 25.09191,23.85858 13.42911,13.24854 26.4552,25.90496 28.94688,28.12538 2.49168,2.22043 17.35557,16.79728 33.03087,32.39301 18.70271,18.60779 28.50149,28.88036 28.50332,29.88155 0.004,1.88723 -16.95348,18.10574 -18.93007,18.10574 -0.74843,0 -6.77439,-5.35145 -13.39102,-11.89211 -6.61664,-6.54066 -12.19445,-11.89211 -12.39515,-11.89211 -0.20071,0 -0.61441,17.75322 -0.91934,39.45161 -0.35437,25.21627 -0.83598,39.79217 -1.33471,40.39543 -0.88096,1.06559 -24.42782,1.36984 -26.05383,0.33665 -1.00796,-0.64048 -1.39911,-14.62769 -2.12601,-76.02355 l -0.41113,-34.72518 -8.84262,-9.08956 c -4.86344,-4.99924 -10.32025,-10.88078 -12.12625,-13.07006 -1.806,-2.18929 -3.59246,-3.87759 -3.96991,-3.75176 -0.40176,0.13391 -0.81547,28.31193 -0.99792,67.96796 -0.17139,37.25655 -0.52858,68.09023 -0.79373,68.51926 -0.73933,1.19625 -25.66968,1.04298 -26.63476,-0.16376 -0.98708,-1.23422 -1.84466,-91.15373 -1.1099,-116.37559 0.43917,-15.07517 0.35409,-18.85868 -0.43081,-19.15905 -0.55785,-0.21348 -6.39694,5.02362 -13.59098,12.18979 l -12.61295,12.56408 0.0403,16.78821 c 0.0221,9.23352 0.05,18.65697 0.0618,20.94101 0.0118,2.28404 0.0571,13.49661 0.10067,24.91681 0.0436,11.4202 0.1856,26.97668 0.31571,34.56995 0.19925,11.62849 0.0579,13.91908 -0.89603,14.52324 -1.86314,1.17999 -25.87393,0.93373 -27.53711,-0.28243 z m -2.66507,-136.86884 c -5.52507,-1.42101 -9.57025,-4.34779 -13.11281,-9.48743 -2.44628,-3.54912 -2.93252,-4.89062 -2.99949,-8.27537 -0.25968,-13.12352 8.60507,-22.95345 20.64263,-22.89016 8.06591,0.0424 13.58725,3.38427 17.98243,10.88406 1.66413,2.83963 1.99163,4.32051 2.00752,9.07759 0.0174,5.20545 -0.2237,6.11565 -2.86138,10.80244 -4.78821,8.50798 -12.80193,12.16682 -21.6589,9.88887 z m 130.24695,-1.76737 c -5.28637,-2.74465 -8.76917,-7.03092 -10.52951,-12.95858 -1.4789,-4.98002 -1.47243,-6.92614 0.04,-12.03602 1.68707,-5.69982 7.38065,-11.39341 13.08047,-13.08046 5.07658,-1.50259 7.06103,-1.51742 11.87199,-0.0887 8.82616,2.62109 13.877,9.34586 14.44968,19.23855 0.38091,6.58005 -0.52336,9.35261 -4.56531,13.99762 -3.68543,4.23529 -8.87413,6.67428 -14.90915,7.00819 -4.31611,0.23881 -5.45408,-0.0121 -9.43818,-2.08058 z m -61.15944,-53.97082 c -0.41528,-0.16254 -2.00441,-0.50399 -3.53141,-0.75877 -3.43608,-0.57331 -9.83643,-6.12432 -12.13391,-10.52373 -2.37495,-4.54776 -2.30658,-13.13511 0.14326,-17.99254 7.67928,-15.22607 29.25719,-14.89395 36.57569,0.56297 2.17596,4.59568 2.60778,10.33065 1.11274,14.77798 -1.30018,3.86767 -5.91243,9.58425 -9.36545,11.60785 -2.82177,1.65368 -10.8103,3.10539 -12.80092,2.32624 z"
         id="path3006"
         inkscape:connector-curvature="0" />
    </g>
  </g>
</svg>
